<svg width="36" height="40" viewBox="0 0 36 40" fill="none" xmlns="http://www.w3.org/2000/svg">
<g clip-path="url(#clip0)">
<path d="M11 15.75C11 14.5074 12.0074 13.5 13.25 13.5H25.4" stroke="#BFBEBF" stroke-width="2" stroke-linecap="round" stroke-linejoin="round"/>
<path fill-rule="evenodd" clip-rule="evenodd" d="M13.25 0H25.4V18H13.25C12.0074 18 11 16.9926 11 15.75V2.25C11 1.00736 12.0074 0 13.25 0Z" stroke="#BFBEBF" stroke-width="2" stroke-linecap="round" stroke-linejoin="round"/>
<path d="M4.96094 37.209H1.5625V30.9541H0.683594V38H4.96094V37.209ZM5.83984 38H6.68945V32.9219H5.83984V38ZM6.26465 32.0186C6.5625 32.0186 6.79688 31.7793 6.79688 31.4863C6.79688 31.1885 6.5625 30.9541 6.26465 30.9541C5.97168 30.9541 5.73242 31.1885 5.73242 31.4863C5.73242 31.7793 5.97168 32.0186 6.26465 32.0186ZM10.3613 38.0879C11.6602 38.0879 12.5195 37.0576 12.5195 35.4609C12.5195 33.8691 11.6553 32.834 10.376 32.834C9.6582 32.834 9.06738 33.1904 8.75 33.7715H8.73047V30.9541H7.88086V38H8.69141V37.1406H8.71094C9.03809 37.7266 9.61914 38.0879 10.3613 38.0879ZM10.1953 33.5811C11.0938 33.5811 11.6504 34.3086 11.6504 35.4609C11.6504 36.623 11.0938 37.3408 10.1953 37.3408C9.33594 37.3408 8.72559 36.5938 8.72559 35.4609C8.72559 34.333 9.33594 33.5811 10.1953 33.5811ZM13.3838 38H14.2334V34.8359C14.2334 34.1182 14.6631 33.6445 15.3223 33.6445C15.5273 33.6445 15.708 33.6689 15.7764 33.6934V32.8682C15.708 32.8584 15.5811 32.834 15.4346 32.834C14.8389 32.834 14.3701 33.1904 14.2041 33.752H14.1846V32.9219H13.3838V38ZM18.0469 37.3652C17.4365 37.3652 17.0312 37.0479 17.0312 36.5645C17.0312 36.0859 17.4219 35.7832 18.1055 35.7393L19.4629 35.6562V36.0713C19.4629 36.8037 18.8477 37.3652 18.0469 37.3652ZM17.8564 38.0879C18.54 38.0879 19.1846 37.707 19.4873 37.126H19.5068V38H20.3125V34.4893C20.3125 33.4785 19.5605 32.834 18.3691 32.834C17.168 32.834 16.416 33.5078 16.3574 34.3867H17.1777C17.2852 33.8887 17.6953 33.5811 18.3496 33.5811C19.0527 33.5811 19.4629 33.9521 19.4629 34.5723V34.9971L18.0078 35.0801C16.8359 35.1484 16.167 35.6953 16.167 36.5645C16.167 37.4775 16.8457 38.0879 17.8564 38.0879ZM21.3916 38H22.2412V34.8359C22.2412 34.1182 22.6709 33.6445 23.3301 33.6445C23.5352 33.6445 23.7158 33.6689 23.7842 33.6934V32.8682C23.7158 32.8584 23.5889 32.834 23.4424 32.834C22.8467 32.834 22.3779 33.1904 22.2119 33.752H22.1924V32.9219H21.3916V38ZM24.5215 38H25.3711V32.9219H24.5215V38ZM24.9463 32.0186C25.2441 32.0186 25.4785 31.7793 25.4785 31.4863C25.4785 31.1885 25.2441 30.9541 24.9463 30.9541C24.6533 30.9541 24.4141 31.1885 24.4141 31.4863C24.4141 31.7793 24.6533 32.0186 24.9463 32.0186ZM28.5547 33.5713C29.3555 33.5713 29.8877 34.1768 29.9072 35.0264H27.1484C27.2021 34.1816 27.7588 33.5713 28.5547 33.5713ZM29.8877 36.5449C29.7461 37.0234 29.2725 37.3506 28.6279 37.3506C27.7148 37.3506 27.1436 36.7109 27.1436 35.7393V35.6904H30.7861V35.3682C30.7861 33.8301 29.9414 32.834 28.5693 32.834C27.168 32.834 26.2695 33.9033 26.2695 35.4805C26.2695 37.0771 27.1533 38.0879 28.6084 38.0879C29.7168 38.0879 30.5762 37.4336 30.7227 36.5449H29.8877ZM31.5576 34.3232C31.5576 35.0557 32.0215 35.5 32.9785 35.7295L33.7842 35.9248C34.3652 36.0664 34.5654 36.2764 34.5654 36.6426C34.5654 37.1016 34.1406 37.3945 33.4521 37.3945C32.7637 37.3945 32.373 37.1162 32.2705 36.5352H31.4209C31.5186 37.4873 32.2607 38.0879 33.4521 38.0879C34.585 38.0879 35.4199 37.4629 35.4199 36.5791C35.4199 35.8516 35.0488 35.4512 34.0234 35.2021L33.2178 35.0068C32.6514 34.8701 32.3926 34.6309 32.3926 34.2793C32.3926 33.835 32.8027 33.5273 33.4229 33.5273C34.0479 33.5273 34.4385 33.8545 34.502 34.3867H35.3125C35.2783 33.4883 34.5361 32.834 33.4229 32.834C32.3242 32.834 31.5576 33.4541 31.5576 34.3232Z" fill="#BFBEBF"/>
</g>
<defs>
<clipPath id="clip0">
<rect width="36" height="40" fill="white"/>
</clipPath>
</defs>
</svg>
